<svg width="32" height="32" viewBox="0 0 32 32" fill="none" xmlns="http://www.w3.org/2000/svg">
<path d="M16.0003 2.66675C23.3643 2.66675 29.3337 8.63608 29.3337 16.0001C29.3337 23.3641 23.3643 29.3334 16.0003 29.3334C8.63633 29.3334 2.66699 23.3641 2.66699 16.0001C2.66699 8.63608 8.63633 2.66675 16.0003 2.66675ZM16.0003 5.33341C13.1713 5.33341 10.4582 6.45722 8.45785 8.45761C6.45747 10.458 5.33366 13.1711 5.33366 16.0001C5.33366 18.8291 6.45747 21.5422 8.45785 23.5426C10.4582 25.5429 13.1713 26.6667 16.0003 26.6667C18.8293 26.6667 21.5424 25.5429 23.5428 23.5426C25.5432 21.5422 26.667 18.8291 26.667 16.0001C26.667 13.1711 25.5432 10.458 23.5428 8.45761C21.5424 6.45722 18.8293 5.33341 16.0003 5.33341ZM16.0003 8.00008C16.3269 8.00012 16.6421 8.12002 16.8862 8.33704C17.1302 8.55405 17.2861 8.85308 17.3243 9.17741L17.3337 9.33342V15.4481L20.943 19.0574C21.1821 19.2974 21.321 19.6193 21.3313 19.9579C21.3416 20.2965 21.2227 20.6264 20.9987 20.8805C20.7746 21.1345 20.4623 21.2938 20.125 21.3259C19.7878 21.3581 19.451 21.2606 19.183 21.0534L19.0577 20.9427L15.0577 16.9427C14.8504 16.7353 14.7173 16.4654 14.679 16.1747L14.667 16.0001V9.33342C14.667 8.97979 14.8075 8.64065 15.0575 8.39061C15.3076 8.14056 15.6467 8.00008 16.0003 8.00008Z" fill="black"/>
</svg>
