<svg width="24" height="24" viewBox="0 0 24 24" fill="none" xmlns="http://www.w3.org/2000/svg">
<path d="M5.57088 7.88696C5.28438 5.99996 6.61488 4.30496 8.64738 3.68396C9.00807 3.57443 9.39691 3.60617 9.73507 3.77274C10.0732 3.93931 10.3354 4.22825 10.4684 4.58096L11.1209 6.32096C11.2259 6.60088 11.2449 6.9058 11.1754 7.1966C11.1059 7.48739 10.9511 7.75078 10.7309 7.95296L8.78988 9.73046C8.69408 9.81817 8.6227 9.92926 8.58274 10.0528C8.54277 10.1764 8.53558 10.3083 8.56188 10.4355L8.57988 10.5135L8.62638 10.7085C8.86837 11.6557 9.23614 12.5663 9.71988 13.416C10.2481 14.3181 10.9027 15.1399 11.6639 15.8565L11.7239 15.9105C11.8208 15.9965 11.9383 16.0559 12.065 16.083C12.1917 16.1101 12.3233 16.1039 12.4469 16.065L14.9564 15.2745C15.2416 15.1849 15.547 15.1826 15.8335 15.2679C16.12 15.3531 16.3745 15.5221 16.5644 15.753L17.7524 17.1945C18.2474 17.7945 18.1874 18.6765 17.6189 19.206C16.0634 20.6565 13.9244 20.9535 12.4364 19.758C10.6117 18.2875 9.07391 16.4929 7.90038 14.4645C6.71536 12.4387 5.92594 10.2069 5.57088 7.88696ZM10.1339 10.5345L11.7419 9.05846C12.1826 8.65427 12.4925 8.12756 12.6318 7.54597C12.771 6.96438 12.7333 6.35444 12.5234 5.79446L11.8724 4.05446C11.6053 3.34462 11.078 2.76305 10.3977 2.42789C9.71735 2.09274 8.93493 2.02912 8.20938 2.24996C5.68488 3.02246 3.65838 5.28596 4.08738 8.11346C4.38738 10.0875 5.07888 12.5985 6.60438 15.2205C7.87055 17.4076 9.5293 19.3425 11.4974 20.928C13.7294 22.7205 16.7084 22.1085 18.6434 20.3055C19.197 19.7899 19.5331 19.0826 19.583 18.3277C19.6329 17.5728 19.3929 16.8274 18.9119 16.2435L17.7239 14.8005C17.3438 14.3392 16.8347 14.0019 16.2617 13.832C15.6887 13.662 15.078 13.667 14.5079 13.8465L12.4244 14.502C11.8864 13.9473 11.4152 13.3317 11.0204 12.6675C10.6394 11.9958 10.3422 11.28 10.1354 10.536" fill="#9E9E9E"/>
</svg>
