<svg width="24" height="24" viewBox="0 0 24 24" fill="none" xmlns="http://www.w3.org/2000/svg">
<path d="M18.69 11.0892C18.8081 11.0893 18.9252 11.1127 19.0343 11.158C19.1435 11.2033 19.2427 11.2696 19.3262 11.3533C19.4097 11.4369 19.4759 11.5361 19.5211 11.6454C19.5662 11.7546 19.5894 11.8716 19.5894 11.9898C19.5893 12.108 19.5659 12.225 19.5206 12.3342C19.4753 12.4434 19.409 12.5425 19.3253 12.626C19.2417 12.7096 19.1424 12.7758 19.0332 12.8209C18.924 12.8661 18.8069 12.8893 18.6888 12.8892L18.69 11.0892ZM17.3334 11.9886L17.3334 11.0886L17.334 11.0886L17.3334 11.9886ZM11.3112 12.8886C11.0725 12.8886 10.8435 12.7938 10.6748 12.625C10.506 12.4562 10.4112 12.2273 10.4112 11.9886C10.4112 11.7499 10.506 11.521 10.6748 11.3522C10.8435 11.1834 11.0725 11.0886 11.3112 11.0886L11.3112 12.8886ZM11.3001 11.0886C11.5388 11.0886 11.7677 11.1834 11.9365 11.3522C12.1052 11.521 12.2001 11.7499 12.2001 11.9886C12.2001 12.2273 12.1052 12.4562 11.9365 12.625C11.7677 12.7938 11.5388 12.8886 11.3001 12.8886L11.3001 11.0886ZM4.79996 12.8886C4.56126 12.8886 4.33234 12.7938 4.16356 12.625C3.99478 12.4562 3.89996 12.2273 3.89996 11.9886C3.89996 11.7499 3.99478 11.521 4.16356 11.3522C4.33234 11.1834 4.56126 11.0886 4.79996 11.0886L4.79996 12.8886ZM18.6888 12.8892L18.6663 12.8892L18.6672 11.0892L18.69 11.0892L18.6888 12.8892ZM18.6663 12.8892L18.3993 12.8892L18.4008 11.0892L18.6672 11.0892L18.6663 12.8892ZM18.3993 12.8892L18.1329 12.8892L18.1341 11.0892L18.4008 11.0892L18.3993 12.8892ZM18.1329 12.8892L17.8659 12.8889L17.8674 11.0889L18.1341 11.0892L18.1329 12.8892ZM17.8659 12.8889L17.5995 12.8886L17.6007 11.0886L17.8674 11.0889L17.8659 12.8889ZM17.5995 12.8886L17.3328 12.8886L17.334 11.0886L17.6007 11.0886L17.5995 12.8886ZM17.3334 12.8886L11.3112 12.8886L11.3112 11.0886L17.3334 11.0886L17.3334 12.8886ZM11.3001 12.8886L4.79996 12.8886L4.79996 11.0886L11.3001 11.0886L11.3001 12.8886Z" fill="white"/>
<path d="M12.2669 4.53296L18.6197 10.8861C18.766 11.0323 18.882 11.2059 18.9612 11.397C19.0403 11.5881 19.0811 11.793 19.0811 11.9998C19.0811 12.2067 19.0403 12.4115 18.9612 12.6026C18.882 12.7937 18.766 12.9673 18.6197 13.1136L12.2666 19.4664" stroke="white" stroke-width="1.8" stroke-linecap="round" stroke-linejoin="round"/>
</svg>
