<svg width="32" height="32" viewBox="0 0 32 32" fill="none" xmlns="http://www.w3.org/2000/svg">
<path d="M22.1719 18.5214L22.7799 17.9174L21.3679 16.4988L20.7626 17.1028L22.1719 18.5214ZM24.8186 17.6641L27.3666 19.0494L28.3199 17.2921L25.7732 15.9081L24.8186 17.6641ZM27.8559 21.8014L25.9626 23.6854L27.3719 25.1028L29.2652 23.2201L27.8559 21.8014ZM24.8079 24.2908C22.8746 24.4721 17.8746 24.3108 12.4586 18.9268L11.0479 20.3441C16.9572 26.2201 22.5826 26.5081 24.9946 26.2828L24.8079 24.2908ZM12.4586 18.9268C7.29724 13.7934 6.44124 9.47744 6.33457 7.60411L4.33724 7.71744C4.47057 10.0748 5.53057 14.8588 11.0479 20.3441L12.4586 18.9268ZM14.2919 10.6868L14.6746 10.3054L13.2666 8.88811L12.8839 9.26811L14.2919 10.6868ZM14.9786 5.45878L13.2986 3.21344L11.6972 4.41344L13.3772 6.65744L14.9786 5.45878ZM7.64391 2.72411L5.55057 4.80411L6.96124 6.22278L9.05324 4.14278L7.64391 2.72411ZM13.5879 9.97744C12.8812 9.26811 12.8812 9.26811 12.8812 9.27078H12.8786L12.8746 9.27611C12.8112 9.33999 12.7545 9.41013 12.7052 9.48544C12.6332 9.59211 12.5546 9.73211 12.4879 9.90944C12.3256 10.3672 12.2852 10.8593 12.3706 11.3374C12.5492 12.4908 13.3439 14.0148 15.3786 16.0388L16.7892 14.6201C14.8839 12.7268 14.4306 11.5748 14.3466 11.0308C14.3066 10.7721 14.3479 10.6441 14.3599 10.6148C14.3679 10.597 14.3679 10.5943 14.3599 10.6068C14.348 10.6252 14.3346 10.6426 14.3199 10.6588L14.3066 10.6721L14.2932 10.6841L13.5879 9.97744ZM15.3786 16.0388C17.4146 18.0628 18.9466 18.8521 20.1012 19.0281C20.6919 19.1188 21.1679 19.0468 21.5292 18.9121C21.7316 18.8381 21.9207 18.7318 22.0892 18.5974L22.1559 18.5374L22.1652 18.5294L22.1692 18.5254L22.1706 18.5228C22.1706 18.5228 22.1719 18.5214 21.4666 17.8121C20.7599 17.1028 20.7639 17.1014 20.7639 17.1014L20.7666 17.0988L20.7692 17.0961L20.7772 17.0894L20.7906 17.0761L20.8412 17.0361C20.8537 17.0281 20.8506 17.029 20.8319 17.0388C20.7986 17.0508 20.6679 17.0921 20.4052 17.0521C19.8532 16.9668 18.6932 16.5134 16.7892 14.6201L15.3786 16.0388ZM13.2986 3.21211C11.9386 1.39878 9.26657 1.11078 7.64391 2.72411L9.05324 4.14278C9.76257 3.43744 11.0212 3.51078 11.6972 4.41344L13.2986 3.21211ZM6.33591 7.60544C6.30924 7.14411 6.52124 6.66144 6.96124 6.22411L5.54924 4.80544C4.83324 5.51744 4.26924 6.52544 4.33724 7.71744L6.33591 7.60544ZM25.9626 23.6854C25.5972 24.0508 25.2026 24.2561 24.8092 24.2921L24.9946 26.2828C25.9746 26.1908 26.7759 25.6974 27.3732 25.1041L25.9626 23.6854ZM14.6746 10.3054C15.9879 9.00011 16.0852 6.93744 14.9799 5.46011L13.3786 6.65878C13.9159 7.37744 13.8359 8.32011 13.2652 8.88944L14.6746 10.3054ZM27.3679 19.0508C28.4572 19.6428 28.6266 21.0374 27.8572 21.8028L29.2679 23.2201C31.0546 21.4428 30.5039 18.4788 28.3212 17.2934L27.3679 19.0508ZM22.7799 17.9188C23.2919 17.4094 24.1159 17.2841 24.8199 17.6654L25.7746 15.9094C24.3292 15.1228 22.5372 15.3401 21.3692 16.5001L22.7799 17.9188Z" fill="black"/>
</svg>
