<svg width="18" height="18" viewBox="0 0 18 18" fill="none" xmlns="http://www.w3.org/2000/svg">
<path d="M10.5187 2.60248L11.7826 5.02686C11.8766 5.20532 12.0116 5.35897 12.1764 5.47523C12.3413 5.59148 12.5313 5.66702 12.731 5.69567L15.4006 6.06129C16.8282 6.25817 17.3817 8.01823 16.3259 8.99698L14.4978 10.6839C14.3422 10.8273 14.2253 11.0076 14.1582 11.2083C14.091 11.4089 14.0757 11.6233 14.1136 11.8314L14.5597 14.3053C14.8077 15.6834 13.3739 16.7578 12.1156 16.1278L9.5641 14.8622C9.38846 14.7761 9.19548 14.7314 8.99991 14.7314C8.80434 14.7314 8.61135 14.7761 8.43572 14.8622L5.88422 16.1278C4.62535 16.7522 3.1921 15.6834 3.44016 14.3053L3.88622 11.8309C3.96497 11.409 3.81872 10.9759 3.5026 10.6834L1.67391 8.99698C0.618098 8.02386 1.1716 6.25761 2.59922 6.06073L5.26885 5.69511C5.4691 5.66825 5.65991 5.59341 5.82503 5.47697C5.99015 5.36052 6.1247 5.20591 6.21722 5.02629L7.48172 2.60248C8.12522 1.38186 9.88022 1.38186 10.5181 2.60248" fill="#FCD53F"/>
</svg>
