<svg width="24" height="24" viewBox="0 0 24 24" fill="none" xmlns="http://www.w3.org/2000/svg">
<path fill-rule="evenodd" clip-rule="evenodd" d="M18 5.5241C18 5.39149 17.9473 5.26431 17.8536 5.17055C17.7598 5.07678 17.6326 5.0241 17.5 5.0241H14.9585C14.8397 4.32548 14.4774 3.69145 13.9359 3.2343C13.3945 2.77715 12.7087 2.52637 12 2.52637C11.2913 2.52637 10.6055 2.77715 10.0641 3.2343C9.52258 3.69145 9.16034 4.32548 9.0415 5.0241H6.5C6.36739 5.0241 6.24021 5.07678 6.14645 5.17055C6.05268 5.26431 6 5.39149 6 5.5241V7.5241C6 7.58976 6.01293 7.65478 6.03806 7.71544C6.06319 7.7761 6.10002 7.83122 6.14645 7.87765C6.19288 7.92408 6.248 7.96091 6.30866 7.98604C6.36932 8.01117 6.43434 8.0241 6.5 8.0241H7V9.0241H6C5.86739 9.0241 5.74021 9.07678 5.64645 9.17055C5.55268 9.26431 5.5 9.39149 5.5 9.5241V11.5241C5.5 11.6567 5.55268 11.7839 5.64645 11.8777C5.74021 11.9714 5.86739 12.0241 6 12.0241V13.0241H5C4.86739 13.0241 4.74021 13.0768 4.64645 13.1705C4.55268 13.2643 4.5 13.3915 4.5 13.5241V15.5241C4.5 15.6567 4.55268 15.7839 4.64645 15.8777C4.74021 15.9714 4.86739 16.0241 5 16.0241H5.5V18.0001H4C3.86739 18.0001 3.74021 18.0528 3.64645 18.1465C3.55268 18.2403 3.5 18.3675 3.5 18.5001V20.5001C3.5 20.6327 3.55268 20.7599 3.64645 20.8537C3.74021 20.9474 3.86739 21.0001 4 21.0001H10V21.0241H14V21.0001H20C20.1326 21.0001 20.2598 20.9474 20.3536 20.8537C20.4473 20.7599 20.5 20.6327 20.5 20.5001V18.5001C20.5 18.3675 20.4473 18.2403 20.3536 18.1465C20.2598 18.0528 20.1326 18.0001 20 18.0001H18.5V16.0241H19C19.1326 16.0241 19.2598 15.9714 19.3536 15.8777C19.4473 15.7839 19.5 15.6567 19.5 15.5241V13.5241C19.5 13.3915 19.4473 13.2643 19.3536 13.1705C19.2598 13.0768 19.1326 13.0241 19 13.0241H18V12.0241C18.1326 12.0241 18.2598 11.9714 18.3536 11.8777C18.4473 11.7839 18.5 11.6567 18.5 11.5241V9.5241C18.5 9.39149 18.4473 9.26431 18.3536 9.17055C18.2598 9.07678 18.1326 9.0241 18 9.0241H17V8.0241H17.5C17.6326 8.0241 17.7598 7.97142 17.8536 7.87765C17.9473 7.78388 18 7.65671 18 7.5241V5.5241ZM7 6.0241H10.5V7.0241H7V6.0241ZM10.5 8.0241H8V9.0241H10.5V8.0241ZM11.5 9.0241V8.0241H12.5V9.0241H11.5ZM10.5 10.0241H6.5V11.0241H10.5V10.0241ZM11.5 11.0241V10.0241H12.5V11.0241H11.5ZM10.5 12.0241H7V13.0241H10.5V12.0241ZM11.5 13.0241V12.0241H12.5V13.0241H11.5ZM5.5 14.0241V15.0241H10.5V14.0241H5.5ZM18.5 15.0241V14.0241H13.5V15.0241H18.5ZM12.5 14.0241V15.0001H11.5V14.0241H12.5ZM13.5 13.0241H17V12.0241H13.5V13.0241ZM13.5 11.0241H17.5V10.0241H13.5V11.0241ZM13.5 9.0241H16V8.0241H13.5V9.0241ZM13.5 7.0241H17V6.0241H13.5V7.0241ZM12.5 6.0241V7.0241H11.5V6.0241H12.5ZM17.5 18.0001V16.0241H6.5V18.0001H10V17.0241H14V18.0001H17.5ZM14 19.0001V20.0001H19.5V19.0001H14ZM10 19.0001V20.0001H4.5V19.0001H10Z" fill="#FFB300"/>
</svg>
