<svg width="24" height="24" viewBox="0 0 24 24" fill="none" xmlns="http://www.w3.org/2000/svg">
<path d="M5.57013 7.88697C5.28438 6.00147 6.61488 4.30497 8.64738 3.68247C9.00826 3.57201 9.39768 3.6034 9.73621 3.77023C10.0747 3.93705 10.3369 4.22675 10.4691 4.58022L11.1209 6.32022C11.2257 6.60011 11.2445 6.90493 11.1748 7.19557C11.1052 7.48621 10.9504 7.74943 10.7301 7.95147L8.79138 9.72972C8.69558 9.81743 8.6242 9.92851 8.58424 10.0521C8.54427 10.1757 8.53708 10.3075 8.56338 10.4347L8.58063 10.5127L8.62863 10.7085C8.67138 10.8735 8.73588 11.106 8.82663 11.3835C9.00663 11.9347 9.29388 12.6757 9.72138 13.416C10.1489 14.1562 10.6469 14.7757 11.0339 15.207C11.2356 15.4313 11.4463 15.6475 11.6654 15.855L11.7254 15.9105C11.8224 15.9964 11.9399 16.0557 12.0666 16.0826C12.1933 16.1095 12.3248 16.1032 12.4484 16.0642L14.9579 15.2745C15.243 15.1848 15.5484 15.1824 15.8349 15.2676C16.1214 15.3527 16.3759 15.5214 16.5659 15.7522L17.7531 17.1937C18.2481 17.7937 18.1896 18.6757 17.6204 19.206C16.0649 20.6557 13.9259 20.9535 12.4379 19.7565C10.6144 18.285 9.07689 16.4909 7.90188 14.4637C6.71824 12.4372 5.92718 10.2065 5.57013 7.88697ZM10.1346 10.533L11.7441 9.05697C12.1846 8.65289 12.4943 8.12645 12.6335 7.54517C12.7728 6.96388 12.7352 6.35425 12.5256 5.79447L11.8731 4.05447C11.6069 3.34356 11.0796 2.76094 10.3987 2.42536C9.71782 2.08979 8.93457 2.02652 8.20863 2.24847C5.68488 3.02172 3.65838 5.28447 4.08738 8.11122C4.47247 10.6176 5.32664 13.029 6.60513 15.219C7.87247 17.4051 9.53076 19.3397 11.4974 20.9265C13.7286 22.719 16.7091 22.1077 18.6434 20.304C19.1972 19.7883 19.5332 19.0807 19.583 18.3257C19.6327 17.5707 19.3924 16.8251 18.9111 16.2412L17.7239 14.7997C17.344 14.338 16.8347 14.0004 16.2616 13.8302C15.6884 13.6599 15.0775 13.6648 14.5071 13.8442L12.4244 14.4997C12.3311 14.4039 12.2399 14.3061 12.1506 14.2065C11.7224 13.733 11.3437 13.2171 11.0204 12.6667C10.7052 12.1114 10.4476 11.5254 10.2516 10.9177C10.21 10.7905 10.171 10.6625 10.1346 10.5337" fill="white"/>
</svg>
