<svg width="32" height="32" viewBox="0 0 32 32" fill="none" xmlns="http://www.w3.org/2000/svg">
<path fill-rule="evenodd" clip-rule="evenodd" d="M26.4003 13.5732C25.987 9.33319 23.4803 2.6665 15.7337 2.6665C7.98702 2.6665 5.48034 9.33319 5.06702 13.5732C3.61702 14.1235 2.66059 15.5156 2.66702 17.0665V18.9332C2.66702 20.9951 4.33852 22.6665 6.40034 22.6665C8.46221 22.6665 10.1337 20.995 10.1337 18.9332V17.0665C10.127 15.5491 9.20571 14.1856 7.80034 13.6132C8.06702 11.1598 9.37371 5.33319 15.7337 5.33319C22.0937 5.33319 23.387 11.1598 23.6537 13.6132C22.2512 14.1868 21.3346 15.5513 21.3337 17.0665V18.9332C21.3366 19.6357 21.5369 20.3232 21.9117 20.9173C22.2866 21.5114 22.8209 21.9882 23.4537 22.2932C22.8937 23.3465 21.467 24.7732 17.9603 25.1998C17.2594 24.1354 15.9032 23.7158 14.7236 24.1984C13.544 24.6809 12.8707 25.9307 13.1167 27.1812C13.3627 28.4317 14.4592 29.3332 15.7337 29.3332C16.2275 29.3304 16.7109 29.1906 17.13 28.9293C17.549 28.668 17.8873 28.2954 18.107 27.8532C23.827 27.1998 25.6537 24.2532 26.227 22.5198C27.7781 22.0174 28.8213 20.5635 28.8003 18.9332V17.0665C28.8068 15.5156 27.8503 14.1235 26.4003 13.5732ZM7.46702 18.9332C7.46702 19.5223 6.98946 19.9998 6.40034 19.9998C5.81121 19.9998 5.33371 19.5223 5.33371 18.9332V17.0665C5.33263 16.9257 5.35943 16.7862 5.41255 16.6558C5.46567 16.5254 5.54407 16.4069 5.64322 16.307C5.74238 16.2071 5.86033 16.1277 5.99028 16.0736C6.12023 16.0195 6.2596 15.9917 6.40037 15.9917C6.54113 15.9917 6.68051 16.0195 6.81046 16.0736C6.94041 16.1277 7.05836 16.2071 7.15751 16.307C7.25667 16.4069 7.33506 16.5254 7.38819 16.6558C7.44131 16.7862 7.4681 16.9257 7.46702 17.0665V18.9332ZM24.0003 17.0665C24.0003 16.4774 24.4779 15.9998 25.067 15.9998C25.6561 15.9998 26.1337 16.4774 26.1337 17.0665V18.9332C26.1337 19.5223 25.6561 19.9998 25.067 19.9998C24.4779 19.9998 24.0003 19.5223 24.0003 18.9332V17.0665Z" fill="black"/>
</svg>
