<svg width="32" height="32" viewBox="0 0 32 32" fill="none" xmlns="http://www.w3.org/2000/svg">
<path d="M28 4L17.3333 15.3333M12.5947 14.78C9.288 16.0493 6.644 15.832 4 14.784C4.66667 23.3747 8.672 26.6773 14.012 28C14.012 28 18.0347 25.1547 18.6147 18.4093C18.6773 17.6787 18.708 17.3147 18.5573 16.9027C18.4053 16.4907 18.1067 16.196 17.5107 15.6053C16.5293 14.6347 16.04 14.1493 15.4573 14.0267C14.8747 13.9067 14.1147 14.1973 12.5947 14.78Z" stroke="black" stroke-width="2" stroke-linecap="round" stroke-linejoin="round"/>
<path d="M6 21.928C6 21.928 9.33333 22.5733 12.6667 20" stroke="black" stroke-width="2" stroke-linecap="round" stroke-linejoin="round"/>
<path d="M11.3333 9.66667C11.3333 10.1087 11.1577 10.5326 10.8452 10.8452C10.5326 11.1577 10.1087 11.3333 9.66667 11.3333C9.22464 11.3333 8.80072 11.1577 8.48816 10.8452C8.17559 10.5326 8 10.1087 8 9.66667C8 9.22464 8.17559 8.80072 8.48816 8.48816C8.80072 8.17559 9.22464 8 9.66667 8C10.1087 8 10.5326 8.17559 10.8452 8.48816C11.1577 8.80072 11.3333 9.22464 11.3333 9.66667Z" stroke="black" stroke-width="2"/>
<path d="M14.6665 5.33325V5.46659" stroke="black" stroke-width="2.66667" stroke-linecap="round" stroke-linejoin="round"/>
</svg>
