<svg width="32" height="32" viewBox="0 0 32 32" fill="none" xmlns="http://www.w3.org/2000/svg">
<path fill-rule="evenodd" clip-rule="evenodd" d="M26.3998 13.5734C25.9865 9.33344 23.4798 2.66675 15.7332 2.66675C7.98654 2.66675 5.47985 9.33344 5.06654 13.5734C3.61654 14.1237 2.6601 15.5159 2.66654 17.0667V18.9334C2.66654 20.9953 4.33804 22.6667 6.39985 22.6667C8.46172 22.6667 10.1332 20.9952 10.1332 18.9334V17.0667C10.1265 15.5493 9.20522 14.1858 7.79985 13.6134C8.06654 11.1601 9.37322 5.33344 15.7332 5.33344C22.0932 5.33344 23.3865 11.1601 23.6532 13.6134C22.2507 14.1871 21.3341 15.5515 21.3332 17.0667V18.9334C21.3361 19.6359 21.5364 20.3234 21.9112 20.9176C22.2861 21.5117 22.8204 21.9884 23.4532 22.2934C22.8932 23.3467 21.4665 24.7734 17.9598 25.2001C17.2589 24.1357 15.9027 23.7161 14.7231 24.1986C13.5435 24.6811 12.8702 25.9309 13.1162 27.1814C13.3622 28.4319 14.4587 29.3334 15.7332 29.3334C16.2271 29.3307 16.7104 29.1908 17.1295 28.9295C17.5485 28.6682 17.8868 28.2957 18.1065 27.8534C23.8265 27.2001 25.6532 24.2534 26.2265 22.5201C27.7776 22.0176 28.8208 20.5637 28.7998 18.9334V17.0667C28.8063 15.5159 27.8498 14.1237 26.3998 13.5734ZM7.46654 18.9334C7.46654 19.5225 6.98897 20.0001 6.39985 20.0001C5.81072 20.0001 5.33322 19.5226 5.33322 18.9334V17.0667C5.33215 16.926 5.35894 16.7864 5.41206 16.656C5.46518 16.5257 5.54358 16.4071 5.64274 16.3072C5.74189 16.2073 5.85984 16.128 5.98979 16.0739C6.11974 16.0198 6.25911 15.9919 6.39988 15.9919C6.54065 15.9919 6.68002 16.0198 6.80997 16.0739C6.93992 16.128 7.05787 16.2073 7.15702 16.3072C7.25618 16.4071 7.33458 16.5257 7.3877 16.656C7.44082 16.7864 7.46761 16.926 7.46654 17.0667V18.9334ZM23.9998 17.0667C23.9998 16.4776 24.4774 16.0001 25.0665 16.0001C25.6557 16.0001 26.1332 16.4776 26.1332 17.0667V18.9334C26.1332 19.5225 25.6557 20.0001 25.0665 20.0001C24.4774 20.0001 23.9998 19.5226 23.9998 18.9334V17.0667Z" fill="black"/>
</svg>
