<svg width="32" height="32" viewBox="0 0 32 32" fill="none" xmlns="http://www.w3.org/2000/svg">
<path d="M25.3332 16.0001C25.3332 16.3537 25.1927 16.6928 24.9426 16.9429C24.6926 17.1929 24.3535 17.3334 23.9998 17.3334C23.6462 17.3334 23.3071 17.1929 23.057 16.9429C22.807 16.6928 22.6665 16.3537 22.6665 16.0001C22.6665 15.6465 22.807 15.3073 23.057 15.0573C23.3071 14.8072 23.6462 14.6667 23.9998 14.6667C24.3535 14.6667 24.6926 14.8072 24.9426 15.0573C25.1927 15.3073 25.3332 15.6465 25.3332 16.0001Z" fill="black"/>
<path fill-rule="evenodd" clip-rule="evenodd" d="M13.2585 4.33325H17.4078C19.8585 4.33325 21.7998 4.33325 23.3185 4.53725C24.8812 4.74792 26.1465 5.19059 27.1452 6.18792C28.3772 7.42125 28.7705 9.07192 28.9132 11.2146C29.6825 11.5519 30.2638 12.2679 30.3265 13.1746C30.3332 13.2559 30.3332 13.3426 30.3332 13.4226V18.5773C30.3332 18.6573 30.3332 18.7439 30.3278 18.8239C30.2638 19.7306 29.6825 20.4479 28.9132 20.7866C28.7705 22.9279 28.3772 24.5786 27.1452 25.8119C26.1465 26.8093 24.8812 27.2519 23.3185 27.4626C21.7985 27.6666 19.8585 27.6666 17.4078 27.6666H13.2585C10.8078 27.6666 8.8665 27.6666 7.34784 27.4626C5.78517 27.2519 4.51984 26.8093 3.52117 25.8119C2.52384 24.8133 2.08117 23.5479 1.8705 21.9853C1.6665 20.4653 1.6665 18.5253 1.6665 16.0746V15.9253C1.6665 13.4746 1.6665 11.5333 1.8705 10.0146C2.08117 8.45192 2.52384 7.18659 3.52117 6.18792C4.51984 5.19059 5.78517 4.74792 7.34784 4.53725C8.86784 4.33325 10.8078 4.33325 13.2585 4.33325ZM26.8905 20.9999H24.3065C21.4465 20.9999 18.9985 18.8293 18.9985 15.9999C18.9985 13.1706 21.4465 10.9999 24.3052 10.9999H26.8892C26.7372 9.21192 26.3945 8.26659 25.7292 7.60259C25.1652 7.03859 24.3918 6.69992 23.0505 6.51992C21.6812 6.33592 19.8745 6.33325 17.3318 6.33325H13.3318C10.7892 6.33325 8.98384 6.33592 7.61184 6.51992C6.27184 6.69992 5.4985 7.03859 4.9345 7.60259C4.3705 8.16659 4.03317 8.93992 3.85317 10.2799C3.66917 11.6506 3.6665 13.4559 3.6665 15.9986C3.6665 18.5413 3.66917 20.3479 3.85317 21.7186C4.03317 23.0586 4.37184 23.8319 4.93584 24.3959C5.49984 24.9599 6.27317 25.2986 7.6145 25.4786C8.98517 25.6626 10.7905 25.6653 13.3332 25.6653H17.3332C19.8758 25.6653 21.6825 25.6626 23.0532 25.4786C24.3932 25.2986 25.1665 24.9599 25.7305 24.3959C26.3958 23.7319 26.7385 22.7879 26.8905 20.9986M6.99984 10.6666C6.99984 10.4014 7.10519 10.147 7.29273 9.95948C7.48027 9.77194 7.73462 9.66659 7.99984 9.66659H13.3332C13.5984 9.66659 13.8527 9.77194 14.0403 9.95948C14.2278 10.147 14.3332 10.4014 14.3332 10.6666C14.3332 10.9318 14.2278 11.1862 14.0403 11.3737C13.8527 11.5612 13.5984 11.6666 13.3332 11.6666H7.99984C7.73462 11.6666 7.48027 11.5612 7.29273 11.3737C7.10519 11.1862 6.99984 10.9318 6.99984 10.6666ZM27.8985 12.9999H24.3065C22.4078 12.9999 20.9985 14.4119 20.9985 15.9999C20.9985 17.5879 22.4078 18.9999 24.3052 18.9999H27.9292C28.2038 18.9826 28.3225 18.7973 28.3318 18.6853V13.3146C28.3225 13.2026 28.2038 13.0173 27.9292 13.0013L27.8985 12.9999Z" fill="black"/>
</svg>
