<svg width="32" height="32" viewBox="0 0 32 32" fill="none" xmlns="http://www.w3.org/2000/svg">
<path d="M16 2L4 6V18C4 24.6281 9.37187 30 16 30C22.6281 30 28 24.6281 28 18V6L16 2ZM25.75 18C25.75 23.3844 21.3844 27.75 16 27.75C10.6156 27.75 6.25 23.3844 6.25 18V7.6875L16 4.25L25.75 7.6875V18Z" fill="black"/>
<path d="M11.8254 14.8469C11.7211 14.7421 11.5972 14.659 11.4607 14.6023C11.3242 14.5456 11.1779 14.5164 11.0301 14.5164C10.8823 14.5164 10.736 14.5456 10.5995 14.6023C10.463 14.659 10.3391 14.7421 10.2348 14.8469C10.13 14.9511 10.0469 15.0751 9.99021 15.2116C9.93349 15.348 9.9043 15.4944 9.9043 15.6422C9.9043 15.79 9.93349 15.9363 9.99021 16.0728C10.0469 16.2093 10.13 16.3332 10.2348 16.4375L14.2785 20.4813L14.3442 20.5469C14.4428 20.6457 14.5599 20.7241 14.6889 20.7776C14.8179 20.8311 14.9561 20.8586 15.0957 20.8586C15.2353 20.8586 15.3736 20.8311 15.5025 20.7776C15.6315 20.7241 15.7487 20.6457 15.8473 20.5469L22.8317 13.5625C22.9305 13.4639 23.0089 13.3467 23.0624 13.2178C23.1159 13.0888 23.1434 12.9506 23.1434 12.8109C23.1434 12.6713 23.1159 12.5331 23.0624 12.4041C23.0089 12.2752 22.9305 12.158 22.8317 12.0594L22.7442 11.9719C22.6455 11.8731 22.5284 11.7947 22.3994 11.7412C22.2705 11.6877 22.1322 11.6602 21.9926 11.6602C21.853 11.6602 21.7147 11.6877 21.5858 11.7412C21.4568 11.7947 21.3397 11.8731 21.241 11.9719L15.0942 18.1156L11.8254 14.8469Z" fill="black"/>
</svg>
