<svg width="32" height="32" viewBox="0 0 32 32" fill="none" xmlns="http://www.w3.org/2000/svg">
<g clip-path="url(#clip0_1_2381)">
<path d="M10.6663 14.6668C12.4345 14.6668 14.1301 13.9645 15.3804 12.7142C16.6306 11.464 17.333 9.76827 17.333 8.00016C17.333 6.23205 16.6306 4.53636 15.3804 3.28612C14.1301 2.03588 12.4345 1.3335 10.6663 1.3335C8.89823 1.3335 7.20254 2.03588 5.9523 3.28612C4.70205 4.53636 3.99967 6.23205 3.99967 8.00016C3.99967 9.76827 4.70205 11.464 5.9523 12.7142C7.20254 13.9645 8.89823 14.6668 10.6663 14.6668ZM10.6663 14.6668C13.3503 14.6668 15.6957 15.6802 17.3637 17.3642C18.3526 18.3668 19.0924 19.5875 19.5237 20.9282M10.6663 14.6668C5.33301 14.6668 1.33301 18.6668 1.33301 24.0002V30.6668H14.6663M15.9997 25.0988L21.5863 29.3335L30.6663 17.3335" stroke="black" stroke-width="2.66667"/>
</g>
<defs>
<clipPath id="clip0_1_2381">
<rect width="32" height="32" fill="white"/>
</clipPath>
</defs>
</svg>
