<svg width="32" height="32" viewBox="0 0 32 32" fill="none" xmlns="http://www.w3.org/2000/svg">
<path d="M25.3337 15.9998C25.3337 16.3535 25.1932 16.6926 24.9431 16.9426C24.6931 17.1927 24.3539 17.3332 24.0003 17.3332C23.6467 17.3332 23.3076 17.1927 23.0575 16.9426C22.8075 16.6926 22.667 16.3535 22.667 15.9998C22.667 15.6462 22.8075 15.3071 23.0575 15.057C23.3076 14.807 23.6467 14.6665 24.0003 14.6665C24.3539 14.6665 24.6931 14.807 24.9431 15.057C25.1932 15.3071 25.3337 15.6462 25.3337 15.9998Z" fill="black"/>
<path fill-rule="evenodd" clip-rule="evenodd" d="M13.259 4.3335H17.4083C19.859 4.3335 21.8003 4.3335 23.319 4.5375C24.8817 4.74816 26.147 5.19083 27.1457 6.18816C28.3777 7.4215 28.771 9.07216 28.9137 11.2148C29.683 11.5522 30.2643 12.2682 30.327 13.1748C30.3337 13.2562 30.3337 13.3428 30.3337 13.4228V18.5775C30.3337 18.6575 30.3337 18.7442 30.3283 18.8242C30.2643 19.7308 29.683 20.4482 28.9137 20.7868C28.771 22.9282 28.3777 24.5788 27.1457 25.8122C26.147 26.8095 24.8817 27.2522 23.319 27.4628C21.799 27.6668 19.859 27.6668 17.4083 27.6668H13.259C10.8083 27.6668 8.86699 27.6668 7.34833 27.4628C5.78566 27.2522 4.52033 26.8095 3.52166 25.8122C2.52433 24.8135 2.08166 23.5482 1.87099 21.9855C1.66699 20.4655 1.66699 18.5255 1.66699 16.0748V15.9255C1.66699 13.4748 1.66699 11.5335 1.87099 10.0148C2.08166 8.45216 2.52433 7.18683 3.52166 6.18816C4.52033 5.19083 5.78566 4.74816 7.34833 4.5375C8.86833 4.3335 10.8083 4.3335 13.259 4.3335ZM26.891 21.0002H24.307C21.447 21.0002 18.999 18.8295 18.999 16.0002C18.999 13.1708 21.447 11.0002 24.3057 11.0002H26.8897C26.7377 9.21216 26.395 8.26683 25.7297 7.60283C25.1657 7.03883 24.3923 6.70016 23.051 6.52016C21.6817 6.33616 19.875 6.3335 17.3323 6.3335H13.3323C10.7897 6.3335 8.98433 6.33616 7.61233 6.52016C6.27233 6.70016 5.49899 7.03883 4.93499 7.60283C4.37099 8.16683 4.03366 8.94016 3.85366 10.2802C3.66966 11.6508 3.66699 13.4562 3.66699 15.9988C3.66699 18.5415 3.66966 20.3482 3.85366 21.7188C4.03366 23.0588 4.37233 23.8322 4.93633 24.3962C5.50033 24.9602 6.27366 25.2988 7.61499 25.4788C8.98566 25.6628 10.791 25.6655 13.3337 25.6655H17.3337C19.8763 25.6655 21.683 25.6628 23.0537 25.4788C24.3937 25.2988 25.167 24.9602 25.731 24.3962C26.3963 23.7322 26.739 22.7882 26.891 20.9988M7.00033 10.6668C7.00033 10.4016 7.10568 10.1473 7.29322 9.95972C7.48076 9.77219 7.73511 9.66683 8.00033 9.66683H13.3337C13.5989 9.66683 13.8532 9.77219 14.0408 9.95972C14.2283 10.1473 14.3337 10.4016 14.3337 10.6668C14.3337 10.932 14.2283 11.1864 14.0408 11.3739C13.8532 11.5615 13.5989 11.6668 13.3337 11.6668H8.00033C7.73511 11.6668 7.48076 11.5615 7.29322 11.3739C7.10568 11.1864 7.00033 10.932 7.00033 10.6668ZM27.899 13.0002H24.307C22.4083 13.0002 20.999 14.4122 20.999 16.0002C20.999 17.5882 22.4083 19.0002 24.3057 19.0002H27.9297C28.2043 18.9828 28.323 18.7975 28.3323 18.6855V13.3148C28.323 13.2028 28.2043 13.0175 27.9297 13.0015L27.899 13.0002Z" fill="black"/>
</svg>
